HIERARCHY
ROOT Hips
{
	OFFSET 0.00000 0.00000 0.00000
	CHANNELS 6 Xposition Yposition Zposition Zrotation Yrotation Xrotation 
	JOINT LHipJoint
	{
		OFFSET 0 0 0
		CHANNELS 3 Zrotation Yrotation Xrotation
		JOINT LeftUpLeg
		{
			OFFSET 1.37590 -1.78394 0.89329
			CHANNELS 3 Zrotation Yrotation Xrotation
			JOINT LeftLeg
			{
				OFFSET 2.47928 -6.81178 0.00000
				CHANNELS 3 Zrotation Yrotation Xrotation
				JOINT LeftFoot
				{
					OFFSET 2.63345 -7.23535 0.00000
					CHANNELS 3 Zrotation Yrotation Xrotation
					JOINT LeftToeBase
					{
						OFFSET 0.23938 -0.65768 2.27012
						CHANNELS 3 Zrotation Yrotation Xrotation
						End Site
						{
							OFFSET 0.00000 -0.00000 1.18363
						}
					}
				}
			}
		}
	}
	JOINT RHipJoint
	{
		OFFSET 0 0 0
		CHANNELS 3 Zrotation Yrotation Xrotation
		JOINT RightUpLeg
		{
			OFFSET -1.33617 -1.78394 0.89329
			CHANNELS 3 Zrotation Yrotation Xrotation
			JOINT RightLeg
			{
				OFFSET -2.56922 -7.05888 0.00000
				CHANNELS 3 Zrotation Yrotation Xrotation
				JOINT RightFoot
				{
					OFFSET -2.56568 -7.04915 0.00000
					CHANNELS 3 Zrotation Yrotation Xrotation
					JOINT RightToeBase
					{
						OFFSET -0.27533 -0.75646 2.18105
						CHANNELS 3 Zrotation Yrotation Xrotation
						End Site
						{
							OFFSET -0.00000 -0.00000 1.15233
						}
					}
				}
			}
		}
	}
	JOINT LowerBack
	{
		OFFSET 0 0 0
		CHANNELS 3 Zrotation Yrotation Xrotation
		JOINT Spine
		{
			OFFSET 0.06190 2.15152 -0.00935
			CHANNELS 3 Zrotation Yrotation Xrotation
			JOINT Spine1
			{
				OFFSET 0.06334 2.15332 0.00872
				CHANNELS 3 Zrotation Yrotation Xrotation
				JOINT Neck
				{
					OFFSET 0 0 0
					CHANNELS 3 Zrotation Yrotation Xrotation
					JOINT Neck1
					{
						OFFSET -0.04202 1.66908 0.23524
						CHANNELS 3 Zrotation Yrotation Xrotation
						JOINT Head
						{
							OFFSET 0.07510 1.69357 -0.24440
							CHANNELS 3 Zrotation Yrotation Xrotation
							End Site
							{
								OFFSET 0.02556 1.71719 -0.11000
							}
						}
					}
				}
				JOINT LeftShoulder
				{
					OFFSET 0 0 0
					CHANNELS 3 Zrotation Yrotation Xrotation
					JOINT LeftArm
					{
						OFFSET 3.67168 1.26306 -0.41342
						CHANNELS 3 Zrotation Yrotation Xrotation
						JOINT LeftForeArm
						{
							OFFSET 4.68510 -0.00000 -0.00000
							CHANNELS 3 Zrotation Yrotation Xrotation
							JOINT LeftHand
							{
								OFFSET 3.39626 -0.00000 -0.00000
								CHANNELS 3 Zrotation Yrotation Xrotation
								JOINT LeftFingerBase
								{
									OFFSET 0 0 0
									CHANNELS 3 Zrotation Yrotation Xrotation
									JOINT LeftHandIndex1
									{
										OFFSET 0.48608 -0.00000 -0.00000
										CHANNELS 3 Zrotation Yrotation Xrotation
										End Site
										{
											OFFSET 0.39189 -0.00000 -0.00000
										}
									}
								}
								JOINT LThumb
								{
									OFFSET 0 0 0
									CHANNELS 3 Zrotation Yrotation Xrotation
									End Site
									{
										OFFSET 0.39787 -0.00000 0.39787
									}
								}
							}
						}
					}
				}
				JOINT RightShoulder
				{
					OFFSET 0 0 0
					CHANNELS 3 Zrotation Yrotation Xrotation
					JOINT RightArm
					{
						OFFSET -3.04136 1.42992 -0.76390
						CHANNELS 3 Zrotation Yrotation Xrotation
						JOINT RightForeArm
						{
							OFFSET -5.55576 -0.00000 -0.00000
							CHANNELS 3 Zrotation Yrotation Xrotation
							JOINT RightHand
							{
								OFFSET -3.32774 -0.00000 -0.00000
								CHANNELS 3 Zrotation Yrotation Xrotation
								JOINT RightFingerBase
								{
									OFFSET 0 0 0
									CHANNELS 3 Zrotation Yrotation Xrotation
									JOINT RightHandIndex1
									{
										OFFSET -0.50763 -0.00000 -0.00000
										CHANNELS 3 Zrotation Yrotation Xrotation
										End Site
										{
											OFFSET -0.40926 -0.00000 -0.00000
										}
									}
								}
								JOINT RThumb
								{
									OFFSET 0 0 0
									CHANNELS 3 Zrotation Yrotation Xrotation
									End Site
									{
										OFFSET -0.41551 -0.00000 0.41551
									}
								}
							}
						}
					}
				}
			}
		}
	}
}
MOTION
Frames: 6
Frame Time: .0083333
41.2424 17.8247 5.138 0 0 0 0 0 0 -21 0 0 0 0 0 0 0 0 0 0 0 0 0 0 21 0 0 0 0 0 0 0 0 0 0 0 0 0 0 0 0 0 0 0 0 0 0 -16 0 0 21 0 0 11 0 0 0 -8 0 0 0 0 0 0 0 0 0 0 0 0 0 0 0 0 0 0 0 0 8 0 0 0 0 0 0 0 0 0 0 0 0 0 0 0 0 0
41.2424 17.8247 5.1380 -121.6780 -83.7493 131.0150 0.0000 0.0000 0.0000 -13.5248 -5.1868 -9.9236 0.7912 5.6782 15.8534 0.3463 1.4219 -11.7263 0.0000 0.0432 0.1187 0.0000 0.0000 0.0000 27.5455 5.3674 -10.2830 -0.8286 -5.8074 16.2266 -0.0487 -8.3484 -12.8122 -0.3200 -3.6360 10.0549 5.0044 -1.2488 -4.3519 4.0608 -2.0424 -1.4525 1.2712 -1.0687 0.9222 -14.4497 -10.8628 -9.9602 8.3370 -13.8308 12.7510 3.5626 -6.7995 7.1247 -0.0000 0.0000 0.0000 -91.3039 2.1310 -1.2204 17.8368 -27.9477 -4.4725 -0.0000 0.0000 -9.9162 4.1343 26.4084 1.8414 -7.1250 0.0000 -0.0000 -27.0608 54.3203 -6.5625 -0.0000 0.0000 0.0000 84.5092 8.5338 12.2982 -12.9686 21.2412 -2.4419 0.0000 -0.0000 -19.5028 0.3891 -42.0976 -0.2608 7.1250 -0.0000 -0.0000 48.5866 -65.7101 -27.0163
41.2386 17.8259 5.1343 -121.7060 -83.7122 131.0210 0.0000 0.0000 0.0000 -13.4800 -5.1114 -9.8936 0.7889 5.6698 15.8294 0.3440 1.4706 -11.7141 0.0002 0.0800 0.2199 0.0000 0.0000 0.0000 27.5933 5.3570 -10.1729 -0.8173 -5.7688 16.1151 -0.0488 -8.3109 -12.7658 -0.3265 -3.6724 10.1569 4.9951 -1.2356 -4.4399 4.0738 -2.0321 -1.4614 1.2881 -1.0634 0.9632 -14.6636 -10.6915 -10.1087 8.9262 -13.6558 12.9292 3.7990 -6.6815 7.2464 -0.0000 0.0000 0.0000 -91.3316 2.0899 -1.3557 17.7638 -27.8537 -4.4383 -0.0000 0.0000 -9.8778 4.1538 26.4736 1.8543 -7.1250 0.0000 -0.0000 -27.0859 54.3816 -6.6112 -0.0000 0.0000 0.0000 84.5035 8.4468 12.3014 -12.9669 21.2387 -2.4413 0.0000 -0.0000 -19.4081 0.2546 -42.2317 -0.1711 7.1250 -0.0000 -0.0000 48.6856 -65.8385 -27.2199
41.2349 17.8278 5.1324 -121.8530 -83.7546 131.1520 0.0000 0.0000 0.0000 -13.5448 -5.1046 -9.8370 0.7838 5.6520 15.7780 0.3437 1.5082 -11.7283 0.0003 0.1036 0.2846 0.0000 0.0000 0.0000 27.5438 5.2822 -10.0989 -0.8063 -5.7307 16.0052 -0.0510 -8.2693 -12.7500 -0.3275 -3.6780 10.1724 4.8356 -1.2812 -4.0601 4.1658 -2.0395 -1.8646 1.4887 -1.0830 0.3441 -14.8508 -10.5729 -9.6442 8.8219 -13.5345 13.0576 3.8302 -6.6581 7.1995 0.0000 -0.0000 0.0000 -91.5752 2.7399 -1.5642 17.7744 -27.8674 -4.4433 -0.0000 0.0000 -9.8184 4.2822 26.5814 1.9190 -7.1250 0.0000 -0.0000 -27.0360 54.5011 -6.6791 0.0000 -0.0000 0.0000 84.3209 7.7189 12.5684 -13.0052 21.2949 -2.4552 0.0000 -0.0000 -19.4010 0.1106 -42.5604 -0.0748 7.1250 -0.0000 -0.0000 49.1079 -66.0977 -27.7834
41.2322 17.8291 5.1286 -121.8240 -83.7437 131.1130 0.0000 0.0000 0.0000 -13.5200 -5.0688 -9.8074 0.7792 5.6358 15.7312 0.3385 1.5705 -11.6756 0.0003 0.1087 0.2987 0.0000 0.0000 0.0000 27.5680 5.2822 -10.0102 -0.7958 -5.6940 15.8992 -0.0515 -8.2535 -12.7376 -0.3341 -3.7147 10.2752 4.7845 -1.3175 -3.9212 4.2200 -2.0679 -2.0619 1.5797 -1.1045 0.0668 -14.7222 -10.6546 -9.3343 8.1174 -13.5958 13.0395 3.5903 -6.7411 7.0876 0.0000 -0.0000 0.0000 -91.7081 3.0414 -1.7692 17.7669 -27.8577 -4.4398 -0.0000 0.0000 -9.8440 4.3413 26.7021 1.9537 -7.1250 0.0000 -0.0000 -27.0613 54.6190 -6.7665 0.0000 -0.0000 0.0000 84.2365 7.3782 12.7564 -13.0058 21.2957 -2.4554 0.0000 -0.0000 -19.2801 -0.0351 -42.7709 0.0239 7.1250 -0.0000 -0.0000 49.3356 -66.2789 -28.1332
41.2283 17.8300 5.1267 -121.8470 -83.7471 131.1300 0.0000 0.0000 0.0000 -13.5366 -5.0778 -9.7278 0.7704 5.6045 15.6410 0.3363 1.6415 -11.6775 0.0004 0.1329 0.3653 0.0000 0.0000 0.0000 27.5755 5.2871 -9.9445 -0.7895 -5.6722 15.8362 -0.0513 -8.2517 -12.7331 -0.3363 -3.7267 10.3090 4.8353 -1.2730 -3.9106 4.1589 -2.0074 -2.0587 1.4910 -1.0741 0.0605 -14.6727 -10.5190 -10.0643 8.3875 -13.4075 13.7304 3.6524 -6.6146 7.4312 0.0000 0.0000 0.0000 -91.6324 2.9326 -1.7209 17.7166 -27.7927 -4.4163 -0.0000 0.0000 -9.9711 4.3836 26.7315 1.9748 -7.1250 0.0000 -0.0000 -27.0408 54.6531 -6.7839 0.0000 0.0000 0.0000 84.3055 7.3979 12.5953 -12.9957 21.2809 -2.4517 0.0000 -0.0000 -19.0714 -0.1762 -43.1546 0.1205 7.1250 -0.0000 -0.0000 49.8770 -66.5699 -28.8202
